<svg xmlns="http://www.w3.org/2000/svg" width="26" height="26" fill="none" viewBox="0 0 26 26"><rect width="26" height="26" fill="#000" fill-opacity="0"/><path fill="#50556C" d="M5.29289 6.70711C4.90237 6.31658 4.90237 5.68342 5.29289 5.29289C5.68342 4.90237 6.31658 4.90237 6.70711 5.29289L20.8492 19.435C21.2398 19.8256 21.2398 20.4587 20.8492 20.8492C20.4587 21.2398 19.8256 21.2398 19.435 20.8492L5.29289 6.70711Z"/><path fill="#50556C" d="M5.29289 19.4351C4.90237 19.8256 4.90237 20.4588 5.29289 20.8493C5.68342 21.2398 6.31658 21.2398 6.70711 20.8493L20.8492 6.70718C21.2398 6.31666 21.2398 5.68349 20.8492 5.29297C20.4587 4.90245 19.8256 4.90245 19.435 5.29297L5.29289 19.4351Z"/></svg>