<svg xmlns="http://www.w3.org/2000/svg" width="32" height="16" fill="none" viewBox="0 0 32 16"><path fill="#D5D5DE" d="M0 8C0 3.58172 3.58172 0 8 0V0C12.4183 0 16 3.58172 16 8V8C16 12.4183 12.4183 16 8 16V16C3.58172 16 0 12.4183 0 8V8Z"/><path stroke="#fff" stroke-linecap="square" stroke-width="2" d="M6 6L10 10M6 10L10 6"/><path fill="#A1A1B5" d="M16 8C16 3.58172 19.5817 0 24 0V0C28.4183 0 32 3.58172 32 8V8C32 12.4183 28.4183 16 24 16V16C19.5817 16 16 12.4183 16 8V8Z"/><path stroke="#fff" stroke-linecap="square" stroke-width="2" d="M22 6L26 10M22 10L26 6"/></svg>